<svg width="2546" height="75" viewBox="0 0 2546 75" fill="none" xmlns="http://www.w3.org/2000/svg">
<g clip-path="url(#clip0_443_387)">
<path d="M2546 60.2148V17.5V0L0 0V60.2148L187.831 60.2148L210.397 38.5L341.148 39.2406L362.387 20.6865H460.616L484.51 47.3076H687.606L707.517 31.1736L888.047 35.2071L914.596 47.3076H1085.17L1113.05 31.1736L1445.57 34.4004L1468.13 52.1478L1601.54 56.1813L1622.11 70.7019H1715.03L1740.25 43.2741H1944.68L1965.25 56.1813L2142.46 56.1813L2171.67 43.2741H2340.25L2370.78 60.2148H2546Z" fill="#272932"/>
<path d="M473.094 31.9796L484.643 46.5002H582.076H679.641L688.933 38.2718L698.225 30.2048L700.482 30.6889L702.871 31.3342L694.508 38.2718C689.862 41.9827 686.411 45.5321 686.677 46.0162C687.075 46.3388 691.986 42.9507 697.562 38.4332L707.783 30.0435L798.18 31.3342L888.711 32.4636L902.516 39.5626L916.188 46.8229L1000.08 46.3388L1083.84 45.8548L1098.05 37.3038L1112.38 28.7528H1161.23C1188.18 28.7528 1263.18 29.2368 1327.96 29.8822L1445.7 30.8502L1456.58 40.5306L1467.47 50.3723L1535.03 51.0177L1602.73 51.6631L1612.29 60.5368L1621.85 69.2491L1668.17 69.0878H1714.37L1726.32 54.5672L1738.26 40.0466H1842.47H1946.67L1956.36 47.9522L1965.92 55.8579L2054.45 55.0512L2142.99 54.0832L2156.8 47.1455L2170.6 40.0466H2256.09H2341.58L2356.18 48.9203L2370.78 57.794H2458.39H2546V60.0527V62.3115C2485 62.3115 2426.5 62.6342 2369.45 62.6342L2354.98 53.7605L2340.65 44.8868H2330.82H2321.13L2322.33 46.3388C2323.13 47.3069 2328.7 51.3404 2334.94 55.6966L2346.22 63.4409L2370.65 64.2476L2395.07 65.0543L2395.74 67.1517L2396.27 69.0878H2371.71H2347.28L2335.07 61.0208L2322.86 52.9538H2297.64H2272.55V50.5337V48.1136H2285.43H2298.44L2296.44 46.5002L2294.45 44.8868H2232.99H2171.53L2157.06 52.1471L2142.6 59.4074H2091.22L2039.99 59.4074L2040.78 61.9888L2041.58 64.4089L2027.91 63.4409C2020.47 62.9569 2002.95 61.9888 1989.15 61.3435L1963.92 60.2141L1954.63 52.6311L1945.34 45.2095L1841.93 45.6935L1738.53 46.1775L1727.11 60.0527L1715.7 73.928H1668.04H1620.39L1610.7 65.0543L1601.01 56.1806H1554.81H1508.62L1510.61 57.794L1512.6 59.4074C1518.02 61.106 1504.5 57.794 1466.14 55.3739L1455.39 45.5321L1444.5 35.6904L1297.42 36.3358L1150.21 36.9811L1152.2 35.3677L1154.2 33.593H1133.49H1112.78L1099.64 41.9827L1086.5 50.5337L1073.89 51.8244C1066.98 52.4698 1055.04 53.4378 1047.34 53.9218L1033.4 54.5672L1035.39 52.9538L1037.38 51.3404H976.188H914.994L900.79 44.0801L886.719 36.9811L833.623 36.8198L780.658 36.4971L777.605 39.0785L774.685 41.66H761.942L749.331 41.4986L751.588 39.4012C752.915 38.2718 753.977 36.8198 753.977 36.1744V35.2064H731.145H708.314L698.756 43.2734L689.199 51.3404H657.075H625.084L622.429 53.1151L619.775 54.7285L620.571 56.3419L621.367 57.794H658.535H695.703L707.385 48.1136L719.199 38.5945L719.995 40.8533L720.659 43.2734L708.845 52.9538L697.031 62.6342H655.748H614.598V58.6007V54.5672H560.438H506.412L508.404 52.9538L510.395 51.3404H496.457H482.519L470.572 36.8198L458.625 22.2992H411.369H364.245L354.422 31.1729L344.599 40.0466H298.139H251.547L247.565 43.2734L243.582 46.5002H230.972H218.361L221.68 43.2734L224.999 40.0466H217.83H210.662L199.114 50.5337L187.565 61.0208H155.574H123.583L122.787 62.6342L121.99 64.2476H64.6455H7.30078L9.29199 62.6342L11.2832 61.0208H4.24756H0V58.5V56.1806H91.7251L186.238 56.1806L197.786 45.6935L209.335 35.2064H276.237H343.139L353.095 26.3327L363.051 17.459H412.298H461.545L473.094 31.9796Z" fill="#FA6A4F"/>
<path d="M344.2 22.1376C343.536 22.6216 340.881 25.0417 338.226 27.6231L333.447 32.1406L312.607 31.6566L291.633 31.1726L290.97 29.0752L290.439 27.1391H311.545H332.651L337.164 22.2989C338.638 20.7835 347.132 19.6431 344.2 22.1376Z" fill="#FA6A4F"/>
<path d="M1138.93 24.721V27.1411H1114.77H1090.74L1078.4 35.2081L1066.05 43.2751H1041.5H1016.81V40.855V38.4349H1040.97H1064.99L1077.34 30.3679L1089.68 22.3009H1114.24H1138.93V24.721Z" fill="#FA6A4F"/>
<path d="M1965.92 37.7869C1972.16 42.7885 1977.73 47.4673 1978.39 48.274L1979.72 49.7261L1978.39 51.3395L1977.07 52.9529L1965.25 43.2725L1953.31 33.5921H1912.42H1871.67V31.172V28.7519H1913.22H1954.63L1965.92 37.7869Z" fill="#FA6A4F"/>
<path d="M370.352 31.0126C370.352 31.3353 366.635 35.0461 362.122 39.0796L353.891 46.5012H351.369H348.715L357.476 38.4342L366.237 30.3672H368.36C369.422 30.3672 370.352 30.6899 370.352 31.0126V31.0126Z" fill="#FA6A4F"/>
<path d="M1950.25 57.4754L1959.28 65.0584L1957.29 65.5424L1955.16 66.1877L1946 58.4434C1940.83 54.2486 1936.71 50.5378 1936.71 50.2151C1936.71 49.8924 1937.77 49.7311 1938.97 49.7311L1941.36 49.8924L1950.25 57.4754V57.4754Z" fill="#FA6A4F"/>
<path d="M1619.33 57.796L1627.69 65.863H1625.17H1622.65L1614.42 58.4414C1609.9 54.4079 1606.19 50.6971 1606.19 50.3744C1606.19 50.0517 1607.25 49.729 1608.44 49.729H1610.83L1619.33 57.796V57.796Z" fill="#FA6A4F"/>
<path d="M1598.09 65.5393L1603.93 71.6701L1603 73.7675L1601.93 75.7036L1596.23 69.8954L1590.52 64.2485H1569.15H1547.78V61.8284V59.4084H1569.94H1592.24L1598.09 65.5393Z" fill="#FA6A4F"/>
</g>
<defs>
<clipPath id="clip0_443_387">
<rect width="2546" height="75" fill="white"/>
</clipPath>
</defs>
</svg>
